HIERARCHY
ROOT Root
{
  OFFSET 0.0 0.0 0.0
  CHANNELS 6 Xposition Yposition Zposition Zrotation Yrotation Xrotation
  JOINT Hips
  {
    OFFSET 0.0 100.0 0.0
    CHANNELS 6 Xposition Yposition Zposition Zrotation Yrotation Xrotation
    JOINT Spine1
    {
      OFFSET 5.003913 -0.037094 -0.013727
      CHANNELS 3 Zrotation Yrotation Xrotation
      JOINT Spine2
      {
        OFFSET 7.125363 -1e-06 0.0
        CHANNELS 3 Zrotation Yrotation Xrotation
        JOINT Chest
        {
          OFFSET 7.594027 1e-06 0.0
          CHANNELS 3 Zrotation Yrotation Xrotation
          JOINT Neck1
          {
            OFFSET 26.313086 -0.460272 -0.181672
            CHANNELS 3 Zrotation Yrotation Xrotation
            JOINT Neck2
            {
              OFFSET 8.045911 0.0 0.0
              CHANNELS 3 Zrotation Yrotation Xrotation
              JOINT Head
              {
                OFFSET 6.432774 0.0 0.0
                CHANNELS 3 Zrotation Yrotation Xrotation
                JOINT HeadEnd
                {
                  OFFSET 16.169773 0.06451 0.00362
                  CHANNELS 3 Zrotation Yrotation Xrotation
                }
                JOINT Jaw
                {
                  OFFSET 0.108741 3.12938 0.002639
                  CHANNELS 3 Zrotation Yrotation Xrotation
                }
                JOINT LeftEye
                {
                  OFFSET 4.45173 8.166359 3.206392
                  CHANNELS 3 Zrotation Yrotation Xrotation
                }
                JOINT RightEye
                {
                  OFFSET 4.436895 8.135758 -3.222429
                  CHANNELS 3 Zrotation Yrotation Xrotation
                }
              }
            }
          }
          JOINT LeftShoulder
          {
            OFFSET 23.218927 5.195579 1.621656
            CHANNELS 3 Zrotation Yrotation Xrotation
            JOINT LeftArm
            {
              OFFSET 15.902118 2e-06 -2e-06
              CHANNELS 3 Zrotation Yrotation Xrotation
              JOINT LeftForeArm
              {
                OFFSET 28.739307 0.0 -1e-06
                CHANNELS 3 Zrotation Yrotation Xrotation
                JOINT LeftHand
                {
                  OFFSET 27.093981 -4e-06 0.0
                  CHANNELS 3 Zrotation Yrotation Xrotation
                  JOINT LeftHandThumb1
                  {
                    OFFSET 2.276781 3.380274 0.83384
                    CHANNELS 3 Zrotation Yrotation Xrotation
                    JOINT LeftHandThumb2
                    {
                      OFFSET 4.705309 -1e-06 -1e-06
                      CHANNELS 3 Zrotation Yrotation Xrotation
                      JOINT LeftHandThumb3
                      {
                        OFFSET 2.798515 0.0 3e-06
                        CHANNELS 3 Zrotation Yrotation Xrotation
                        JOINT LeftHandThumbEnd
                        {
                          OFFSET 3.180793 4e-06 -4e-06
                          CHANNELS 3 Zrotation Yrotation Xrotation
                        }
                      }
                    }
                  }
                  JOINT LeftHandIndex1
                  {
                    OFFSET 3.247786 2.352677 0.137192
                    CHANNELS 3 Zrotation Yrotation Xrotation
                    JOINT LeftHandIndex2
                    {
                      OFFSET 6.367095 1e-06 0.0
                      CHANNELS 3 Zrotation Yrotation Xrotation
                      JOINT LeftHandIndex3
                      {
                        OFFSET 3.662364 0.0 0.0
                        CHANNELS 3 Zrotation Yrotation Xrotation
                        JOINT LeftHandIndex4
                        {
                          OFFSET 2.329242 4e-06 -4e-06
                          CHANNELS 3 Zrotation Yrotation Xrotation
                          JOINT LeftHandIndexEnd
                          {
                            OFFSET 2.767823 1e-06 0.0
                            CHANNELS 3 Zrotation Yrotation Xrotation
                          }
                        }
                      }
                    }
                  }
                  JOINT LeftHandMiddle1
                  {
                    OFFSET 3.163612 0.945023 -0.406112
                    CHANNELS 3 Zrotation Yrotation Xrotation
                    JOINT LeftHandMiddle2
                    {
                      OFFSET 6.276789 3e-06 0.0
                      CHANNELS 3 Zrotation Yrotation Xrotation
                      JOINT LeftHandMiddle3
                      {
                        OFFSET 4.35652 -1e-06 4e-06
                        CHANNELS 3 Zrotation Yrotation Xrotation
                        JOINT LeftHandMiddle4
                        {
                          OFFSET 2.996877 0.0 8e-06
                          CHANNELS 3 Zrotation Yrotation Xrotation
                          JOINT LeftHandMiddleEnd
                          {
                            OFFSET 2.323256 3e-06 -4e-06
                            CHANNELS 3 Zrotation Yrotation Xrotation
                          }
                        }
                      }
                    }
                  }
                  JOINT LeftHandRing1
                  {
                    OFFSET 2.882606 -0.309162 0.107445
                    CHANNELS 3 Zrotation Yrotation Xrotation
                    JOINT LeftHandRing2
                    {
                      OFFSET 6.033198 0.0 4e-06
                      CHANNELS 3 Zrotation Yrotation Xrotation
                      JOINT LeftHandRing3
                      {
                        OFFSET 4.350578 3e-06 0.0
                        CHANNELS 3 Zrotation Yrotation Xrotation
                        JOINT LeftHandRing4
                        {
                          OFFSET 2.651321 2e-06 -7e-06
                          CHANNELS 3 Zrotation Yrotation Xrotation
                          JOINT LeftHandRingEnd
                          {
                            OFFSET 1.937663 1e-06 -4e-06
                            CHANNELS 3 Zrotation Yrotation Xrotation
                          }
                        }
                      }
                    }
                  }
                  JOINT LeftHandPinky1
                  {
                    OFFSET 2.865315 -1.525436 0.575687
                    CHANNELS 3 Zrotation Yrotation Xrotation
                    JOINT LeftHandPinky2
                    {
                      OFFSET 5.54936 1e-06 -8e-06
                      CHANNELS 3 Zrotation Yrotation Xrotation
                      JOINT LeftHandPinky3
                      {
                        OFFSET 3.070974 0.0 -4e-06
                        CHANNELS 3 Zrotation Yrotation Xrotation
                        JOINT LeftHandPinky4
                        {
                          OFFSET 1.549672 1e-06 0.0
                          CHANNELS 3 Zrotation Yrotation Xrotation
                          JOINT LeftHandPinkyEnd
                          {
                            OFFSET 1.952123 0.0 0.0
                            CHANNELS 3 Zrotation Yrotation Xrotation
                          }
                        }
                      }
                    }
                  }
                }
              }
            }
          }
          JOINT RightShoulder
          {
            OFFSET 23.161716 5.296122 -1.380114
            CHANNELS 3 Zrotation Yrotation Xrotation
            JOINT RightArm
            {
              OFFSET -16.027195 -2e-06 1.1e-05
              CHANNELS 3 Zrotation Yrotation Xrotation
              JOINT RightForeArm
              {
                OFFSET -28.736639 4e-06 2e-06
                CHANNELS 3 Zrotation Yrotation Xrotation
                JOINT RightHand
                {
                  OFFSET -27.133619 6e-06 0.0
                  CHANNELS 3 Zrotation Yrotation Xrotation
                  JOINT RightHandThumb1
                  {
                    OFFSET -2.274328 -3.351035 -0.83067
                    CHANNELS 3 Zrotation Yrotation Xrotation
                    JOINT RightHandThumb2
                    {
                      OFFSET -4.703594 -3e-06 2e-06
                      CHANNELS 3 Zrotation Yrotation Xrotation
                      JOINT RightHandThumb3
                      {
                        OFFSET -2.794935 -4e-06 -3e-06
                        CHANNELS 3 Zrotation Yrotation Xrotation
                        JOINT RightHandThumbEnd
                        {
                          OFFSET -3.183852 4e-06 1e-06
                          CHANNELS 3 Zrotation Yrotation Xrotation
                        }
                      }
                    }
                  }
                  JOINT RightHandIndex1
                  {
                    OFFSET -3.253496 -2.33755 -0.127667
                    CHANNELS 3 Zrotation Yrotation Xrotation
                    JOINT RightHandIndex2
                    {
                      OFFSET -6.344434 0.0 0.0
                      CHANNELS 3 Zrotation Yrotation Xrotation
                      JOINT RightHandIndex3
                      {
                        OFFSET -3.654871 0.0 -8e-06
                        CHANNELS 3 Zrotation Yrotation Xrotation
                        JOINT RightHandIndex4
                        {
                          OFFSET -2.327586 -1e-06 0.0
                          CHANNELS 3 Zrotation Yrotation Xrotation
                          JOINT RightHandIndexEnd
                          {
                            OFFSET -2.770001 3e-06 8e-06
                            CHANNELS 3 Zrotation Yrotation Xrotation
                          }
                        }
                      }
                    }
                  }
                  JOINT RightHandMiddle1
                  {
                    OFFSET -3.168223 -0.944764 0.411762
                    CHANNELS 3 Zrotation Yrotation Xrotation
                    JOINT RightHandMiddle2
                    {
                      OFFSET -6.266691 -1e-06 -4e-06
                      CHANNELS 3 Zrotation Yrotation Xrotation
                      JOINT RightHandMiddle3
                      {
                        OFFSET -4.348901 0.0 0.0
                        CHANNELS 3 Zrotation Yrotation Xrotation
                        JOINT RightHandMiddle4
                        {
                          OFFSET -3.00024 2e-06 -4e-06
                          CHANNELS 3 Zrotation Yrotation Xrotation
                          JOINT RightHandMiddleEnd
                          {
                            OFFSET -2.321477 -4e-06 -4e-06
                            CHANNELS 3 Zrotation Yrotation Xrotation
                          }
                        }
                      }
                    }
                  }
                  JOINT RightHandRing1
                  {
                    OFFSET -2.885654 0.293261 -0.119232
                    CHANNELS 3 Zrotation Yrotation Xrotation
                    JOINT RightHandRing2
                    {
                      OFFSET -6.032835 -1e-06 -4e-06
                      CHANNELS 3 Zrotation Yrotation Xrotation
                      JOINT RightHandRing3
                      {
                        OFFSET -4.33881 0.0 -4e-06
                        CHANNELS 3 Zrotation Yrotation Xrotation
                        JOINT RightHandRing4
                        {
                          OFFSET -2.654903 -4e-06 -4e-06
                          CHANNELS 3 Zrotation Yrotation Xrotation
                          JOINT RightHandRingEnd
                          {
                            OFFSET -1.935122 0.0 4e-06
                            CHANNELS 3 Zrotation Yrotation Xrotation
                          }
                        }
                      }
                    }
                  }
                  JOINT RightHandPinky1
                  {
                    OFFSET -2.866241 1.503904 -0.60527
                    CHANNELS 3 Zrotation Yrotation Xrotation
                    JOINT RightHandPinky2
                    {
                      OFFSET -5.553177 -2e-06 0.0
                      CHANNELS 3 Zrotation Yrotation Xrotation
                      JOINT RightHandPinky3
                      {
                        OFFSET -3.062664 -1e-06 -4e-06
                        CHANNELS 3 Zrotation Yrotation Xrotation
                        JOINT RightHandPinky4
                        {
                          OFFSET -1.546529 2e-06 4e-06
                          CHANNELS 3 Zrotation Yrotation Xrotation
                          JOINT RightHandPinkyEnd
                          {
                            OFFSET -1.952341 0.0 -4e-06
                            CHANNELS 3 Zrotation Yrotation Xrotation
                          }
                        }
                      }
                    }
                  }
                }
              }
            }
          }
        }
      }
    }
    JOINT LeftLeg
    {
      OFFSET -8.443107 2.567604 10.043214
      CHANNELS 3 Zrotation Yrotation Xrotation
      JOINT LeftShin
      {
        OFFSET 43.229198 1e-06 -1e-06
        CHANNELS 3 Zrotation Yrotation Xrotation
        JOINT LeftFoot
        {
          OFFSET 42.298611 1e-06 1e-06
          CHANNELS 3 Zrotation Yrotation Xrotation
          JOINT LeftToeBase
          {
            OFFSET 14.165858 1e-06 0.0
            CHANNELS 3 Zrotation Yrotation Xrotation
            JOINT LeftToeEnd
            {
              OFFSET 6.7141 -0.234461 0.0
              CHANNELS 3 Zrotation Yrotation Xrotation
            }
          }
        }
      }
    }
    JOINT RightLeg
    {
      OFFSET -8.303923 2.592729 -10.047278
      CHANNELS 3 Zrotation Yrotation Xrotation
      JOINT RightShin
      {
        OFFSET -43.369682 0.0 1e-06
        CHANNELS 3 Zrotation Yrotation Xrotation
        JOINT RightFoot
        {
          OFFSET -42.260784 4e-06 2e-06
          CHANNELS 3 Zrotation Yrotation Xrotation
          JOINT RightToeBase
          {
            OFFSET -14.222245 -2e-06 -1e-06
            CHANNELS 3 Zrotation Yrotation Xrotation
            JOINT RightToeEnd
            {
              OFFSET -6.660062 0.232574 -2e-06
              CHANNELS 3 Zrotation Yrotation Xrotation
            }
          }
        }
      }
    }
  }
}
MOTION
Frames: 4
Frame Time: 0.03333333333333333
0.0 0.0 0.0 0.0 -0.0 0.0 3.217875 99.720123 2.381243 88.200119 -5.61893 96.917839 2.377516 3.96762 0.732516 -9.962534 0.46771 0.297081 12.890202 4.54927 -1.27115 -4.779349 7.183342 2.373873 -2.535197 -1.13444 -5.373061 -46.914234 -1.875356 -8.865006 5e-06 1e-06 1e-06 0.032478 -0.019181 0.101948 0.00032 -0.117212 0.09516 0.039848 0.078256 0.07556 -26.033581 -81.44519 32.532295 33.215115 -2.566087 -42.245682 91.178116 3.293113 2.883016 -163.471893 75.348808 -141.559235 17.636627 -26.322725 52.411179 -19.466661 -14.395596 29.410381 0.0 -8.77482 -2e-06 15.417844 -17.684103 7.256076 -0.609777 -1.795656 -3.889326 -4.807087 -11.04681 -2.937851 3e-06 -20.976017 0.0 -5.019969 -25.033558 -4.031881 7e-06 1e-06 1e-06 -10.634533 -5.68697 -3.565585 10.573272 -17.922947 -3.113901 3e-06 -13.821206 1e-06 -0.501778 -31.181505 -4.027017 -10.737125 -57.103046 6.990394 -13.982711 -7.150198 -2.87504 13.772727 -8.401488 -3.218242 0.347733 -34.211552 0.771654 -0.963028 -17.73337 2.621019 -0.0 2e-06 -1e-06 -17.346418 -20.095219 -4.201779 21.757557 -1.638372 3.866429 1e-06 -6.338824 1e-06 -1.69759 -22.591747 -6.194007 -0.0 -4e-06 -1e-06 -156.830933 -79.947052 -20.75359 45.192852 3.524123 -63.786961 75.294647 -2.807286 -4.634204 -13.866412 57.014305 -49.973827 22.182116 -20.375896 49.933319 -16.701817 -16.74353 28.476534 -3e-06 -12.690601 -0.0 16.887905 -17.488972 2.060293 -0.10592 -1.513855 -4.275881 -5.039041 -5.61287 -2.953557 4e-06 -11.020523 -2e-06 -6.111298 -15.89533 -3.84047 1e-06 -0.0 -1e-06 -10.283371 -5.680286 -4.341837 11.028295 -11.302404 -2.372633 -1.384267 -14.238581 -6.32012 -0.625439 -26.924191 -3.827599 -3.841435 -51.199757 -3.875898 -13.708526 -7.363473 -3.720938 18.141148 -14.052739 -3.242675 6e-06 -18.787268 -2e-06 -0.429712 -8.456042 2.555503 -0.0 0.0 0.0 -15.923536 -20.094482 -5.473585 30.41921 -7.190827 1.735926 3e-06 -8.162926 -1e-06 -1.861902 -22.861469 -6.167941 -0.0 -3e-06 -1e-06 171.959991 -10.179693 -24.076853 16.954002 -0.016792 0.422749 -80.373306 1.271928 -9.477026 -3.359512 1.3396 2.078375 -0.999999 -1e-06 1e-06 -4.793848 -4.571845 -15.649551 12.233846 -0.060485 0.090856 -80.186012 -4.616675 -8.422853 -4.117929 0.644902 1.652348 -1.000002 -0.0 0.0 
0.0 0.0 0.0 0.0 -0.0 0.0 3.36533 99.644424 2.596167 88.27182 -6.181404 97.1595 2.316758 3.82082 0.817947 -9.942027 0.449717 0.439672 12.739614 4.584948 -1.243148 -5.047889 7.371817 2.296312 -2.386359 -0.944647 -4.824239 -47.446571 -1.853828 -8.182213 4e-06 1e-06 -0.0 0.082945 0.002393 0.106271 0.12408 -0.106804 0.121294 0.166758 0.112317 0.069172 -31.79196 -81.15242 37.544376 29.845585 -1.409765 -41.424355 95.500206 5.160587 1.942754 -162.400421 72.523376 -135.994415 17.636633 -26.322737 52.411213 -19.466665 -14.395598 29.410395 -1e-06 -8.774823 -2e-06 15.681793 -17.301828 7.710948 -0.609776 -1.795654 -3.889328 -4.80709 -11.046814 -2.93785 5e-06 -20.976021 -0.0 -5.01997 -25.033562 -4.031881 6e-06 0.0 -0.0 -10.634537 -5.686971 -3.565588 10.573278 -17.922955 -3.113901 4e-06 -13.821211 1e-06 -0.501776 -31.181507 -4.027017 -11.159523 -56.534264 7.343852 -13.982716 -7.1502 -2.875042 13.772731 -8.401493 -3.218241 0.347736 -34.211555 0.771655 -0.963028 -17.733372 2.621021 0.0 -1e-06 1e-06 -17.346422 -20.095217 -4.201784 21.757561 -1.638376 3.866429 2e-06 -6.338825 1e-06 -1.697588 -22.591745 -6.194005 1e-06 -4e-06 -2e-06 -156.348389 -81.520035 -20.021025 39.234741 7.694007 -55.009228 76.241623 -3.569656 -3.759638 -10.40839 39.903614 -32.507145 22.182117 -20.375898 49.933346 -16.701817 -16.743532 28.476543 -2e-06 -12.690607 -0.0 15.40377 -15.636858 1.784796 -0.10592 -1.513857 -4.275884 -5.039043 -5.612873 -2.953557 2e-06 -11.020527 -2e-06 -6.111296 -15.895338 -3.840475 0.0 -0.0 -0.0 -10.283373 -5.680291 -4.341842 11.028296 -11.302406 -2.372634 -1.38427 -14.238584 -6.320124 -0.625439 -26.924196 -3.827604 -3.506754 -45.799438 -3.578374 -13.708529 -7.363479 -3.720942 18.141153 -14.052741 -3.242675 6e-06 -18.78727 -3e-06 -0.429714 -8.456045 2.555503 0.0 -1e-06 0.0 -15.923541 -20.094492 -5.473588 30.419218 -7.190824 1.735927 2e-06 -8.162927 -1e-06 -1.861903 -22.861475 -6.167946 0.0 -7e-06 0.0 171.204437 -10.078474 -24.14864 17.553944 -0.036504 0.307173 -80.783028 1.764803 -9.597527 -3.429713 1.3955 2.085867 -0.999998 1e-06 0.0 -5.748141 -4.945287 -15.800577 13.418265 -0.15639 0.106913 -80.79496 -4.840313 -8.637183 -4.332412 0.51321 1.618765 -1.000002 0.0 0.0 
0.0 0.0 0.0 0.0 -0.0 0.0 3.332877 99.665771 2.759943 88.078072 -6.50829 97.96711 2.350349 3.789147 0.795542 -9.983879 0.464201 0.189267 12.667091 4.597527 -1.034588 -5.166336 7.433792 2.254686 -2.274836 -0.822502 -3.9248 -47.028675 -1.887422 -7.087516 5e-06 0.0 -0.0 0.082327 -0.006678 0.048773 0.104649 -0.040688 0.054227 0.170292 0.025473 0.026069 -34.479462 -80.740913 40.125946 27.400013 -0.662808 -40.155647 98.240486 5.451642 -0.064877 -153.910065 75.967377 -121.445808 17.636625 -26.322725 52.411186 -19.466656 -14.395592 29.410389 -1e-06 -8.77482 -3e-06 15.864911 -17.355728 7.279397 -0.609776 -1.795653 -3.889328 -4.807086 -11.046808 -2.93785 7e-06 -20.976011 -2e-06 -5.019967 -25.033552 -4.031881 7e-06 2e-06 1e-06 -10.63453 -5.68697 -3.565588 10.57327 -17.922945 -3.1139 3e-06 -13.821203 1e-06 -0.501777 -31.181494 -4.027014 -10.879598 -57.304955 7.093582 -13.982709 -7.150198 -2.875043 13.772726 -8.401493 -3.218242 0.347734 -34.21154 0.771654 -0.963028 -17.733364 2.621018 0.0 2e-06 -1e-06 -17.346411 -20.095213 -4.201784 21.757551 -1.638375 3.866427 2e-06 -6.338822 1e-06 -1.697589 -22.59174 -6.194005 -0.0 -5e-06 -2e-06 -157.634186 -83.224136 -17.045292 32.591946 12.101848 -46.565666 86.637314 -2.190083 -1.721458 12.423296 34.209846 8.448653 22.182114 -20.375891 49.933323 -16.701813 -16.743528 28.47653 -1e-06 -12.690601 -1e-06 17.36969 -16.154085 1.171204 -0.105918 -1.513857 -4.275879 -5.039041 -5.612872 -2.953556 4e-06 -11.020525 -3e-06 -6.111299 -15.895334 -3.840472 -1e-06 -1e-06 1e-06 -10.283369 -5.680289 -4.341838 11.028294 -11.302404 -2.372637 -1.38427 -14.238583 -6.320121 -0.625435 -26.924187 -3.827603 -4.604102 -48.170433 -2.811704 -13.708524 -7.363479 -3.720938 18.141146 -14.052739 -3.242675 6e-06 -18.787271 -4e-06 -0.42971 -8.456043 2.555503 1e-06 0.0 -0.0 -15.923534 -20.094486 -5.473587 30.41921 -7.190825 1.735929 3e-06 -8.162926 -1e-06 -1.861902 -22.861467 -6.167942 -1e-06 -4e-06 -1e-06 170.7229 -10.185142 -23.876123 17.536451 -0.068147 0.316319 -80.772812 2.576928 -9.300232 -3.51252 1.430121 2.074819 -0.999999 0.0 0.0 -5.538651 -4.80483 -16.551949 12.758654 -0.154896 0.031151 -80.605827 -4.857903 -8.804422 -4.068767 0.568174 1.6452 -1.000001 0.0 -0.0 
0.0 0.0 0.0 0.0 -0.0 0.0 3.278201 99.718063 2.924227 87.802551 -6.615765 98.731865 2.338103 3.829767 0.703455 -10.031871 0.527402 0.011117 12.673852 4.663675 -0.85004 -4.942164 7.232121 2.197849 -2.383066 -0.684435 -2.683033 -45.678238 -1.475138 -5.448745 8e-06 -1e-06 0.0 0.0444 -0.046277 0.02728 0.095866 -0.049397 0.033214 0.173244 -0.046327 0.009108 -36.276333 -80.437767 42.401817 25.292614 -1.491943 -38.015667 102.15136 4.150408 -0.684153 -145.229477 86.746887 -108.06971 17.636639 -26.322741 52.411217 -19.466665 -14.395597 29.410402 1e-06 -8.774824 -3e-06 16.524031 -18.530586 5.798998 -0.609777 -1.795653 -3.88933 -4.807091 -11.046813 -2.937852 3e-06 -20.976021 -1e-06 -5.019972 -25.033562 -4.031884 5e-06 -1e-06 -0.0 -10.634537 -5.686972 -3.56559 10.573275 -17.922953 -3.113902 2e-06 -13.821212 0.0 -0.501778 -31.181505 -4.02702 -11.551798 -59.099518 7.12553 -13.982718 -7.150201 -2.875045 13.772731 -8.401491 -3.218241 0.347732 -34.211559 0.771654 -0.963029 -17.73337 2.62102 -0.0 1e-06 -0.0 -17.346426 -20.095224 -4.201786 21.757561 -1.638374 3.866432 1e-06 -6.338825 1e-06 -1.69759 -22.591751 -6.19401 -0.0 -4e-06 -2e-06 -158.925049 -83.885246 -14.282699 28.097828 14.132055 -43.701595 98.003677 -1.309419 -0.768029 27.932497 29.497921 27.260344 22.182106 -20.375896 49.933327 -16.701815 -16.743528 28.476532 -4e-06 -12.690601 1e-06 18.196577 -15.539276 1.964605 -0.105921 -1.513855 -4.275882 -5.039042 -5.612872 -2.953553 6e-06 -11.020525 -5e-06 -6.111298 -15.895334 -3.84047 -2e-06 0.0 -0.0 -10.283367 -5.68029 -4.341838 11.028292 -11.302405 -2.372634 -1.384269 -14.238581 -6.320119 -0.625436 -26.924189 -3.827603 -5.546532 -51.068069 -1.642074 -13.708522 -7.36348 -3.720937 18.141148 -14.052737 -3.242675 7e-06 -18.787271 -3e-06 -0.429712 -8.456043 2.555506 0.0 0.0 -1e-06 -15.923536 -20.094484 -5.473584 30.41921 -7.19082 1.735925 1e-06 -8.162926 -2e-06 -1.861902 -22.861471 -6.167945 1e-06 -2e-06 -1e-06 170.521149 -10.37975 -23.461533 17.29553 -0.061775 0.396024 -80.629433 3.061632 -8.817043 -3.462359 1.388954 2.061284 -1.0 1e-06 -0.0 -4.700315 -4.323802 -17.14916 11.169589 -0.075816 -0.144751 -80.104927 -4.752001 -8.850945 -3.801176 0.686449 1.691064 -1.000003 -1e-06 -0.0 
